<svg width="24" height="20" viewBox="0 0 24 20" fill="none" xmlns="http://www.w3.org/2000/svg">
<path d="M12 0C12.294 3.80124e-05 12.5777 0.105831 12.7974 0.297312C13.0171 0.488794 13.1574 0.752646 13.1918 1.03882L13.2002 1.17647V2.35294H15.0006C17.3623 2.35353 19.6292 3.2639 21.3125 4.88774C22.9958 6.51158 23.9606 8.71882 23.9988 11.0335C24.0371 13.3482 23.1458 15.5849 21.5171 17.2614C19.8883 18.9378 17.6527 19.9197 15.2922 19.9953L15.0006 20H8.99943C6.63768 19.9994 4.37077 19.089 2.6875 17.4652C1.00423 15.8414 0.0394485 13.6341 0.00118305 11.3194C-0.0370824 9.00474 0.854235 6.76802 2.48295 5.09157C4.11166 3.41512 6.34728 2.43324 8.70777 2.35765L8.99943 2.35294H10.7998V1.17647C10.7998 0.864451 10.9262 0.565211 11.1513 0.34458C11.3764 0.123949 11.6817 0 12 0ZM16.2008 8.23529C15.8825 8.23529 15.5772 8.35924 15.3521 8.57987C15.127 8.80051 15.0006 9.09975 15.0006 9.41177V10H14.4005C14.0821 10 13.7769 10.1239 13.5518 10.3446C13.3267 10.5652 13.2002 10.8645 13.2002 11.1765C13.2002 11.4885 13.3267 11.7877 13.5518 12.0084C13.7769 12.229 14.0821 12.3529 14.4005 12.3529H15.0006V12.9412C15.0006 13.2532 15.127 13.5524 15.3521 13.7731C15.5772 13.9937 15.8825 14.1176 16.2008 14.1176C16.5191 14.1176 16.8244 13.9937 17.0495 13.7731C17.2746 13.5524 17.401 13.2532 17.401 12.9412V12.3529H18.0011C18.3195 12.3529 18.6247 12.229 18.8498 12.0084C19.0749 11.7877 19.2014 11.4885 19.2014 11.1765C19.2014 10.8645 19.0749 10.5652 18.8498 10.3446C18.6247 10.1239 18.3195 10 18.0011 10H17.401V9.41177C17.401 9.09975 17.2746 8.80051 17.0495 8.57987C16.8244 8.35924 16.5191 8.23529 16.2008 8.23529ZM7.7992 8.23529C7.0034 8.23529 6.24019 8.54517 5.67747 9.09675C5.11476 9.64832 4.79863 10.3964 4.79863 11.1765C4.79863 11.9565 5.11476 12.7046 5.67747 13.2562C6.24019 13.8078 7.0034 14.1176 7.7992 14.1176C8.595 14.1176 9.35821 13.8078 9.92092 13.2562C10.4836 12.7046 10.7998 11.9565 10.7998 11.1765C10.7998 10.3964 10.4836 9.64832 9.92092 9.09675C9.35821 8.54517 8.595 8.23529 7.7992 8.23529ZM7.7992 10.5882C7.95836 10.5882 8.111 10.6502 8.22354 10.7605C8.33609 10.8708 8.39931 11.0205 8.39931 11.1765C8.39931 11.3325 8.33609 11.4821 8.22354 11.5924C8.111 11.7027 7.95836 11.7647 7.7992 11.7647C7.64004 11.7647 7.4874 11.7027 7.37485 11.5924C7.26231 11.4821 7.19908 11.3325 7.19908 11.1765C7.19908 11.0205 7.26231 10.8708 7.37485 10.7605C7.4874 10.6502 7.64004 10.5882 7.7992 10.5882Z" fill="#FF90BC"/>
</svg>
