<svg width="19" height="19" viewBox="0 0 19 19" fill="none" xmlns="http://www.w3.org/2000/svg">
<path d="M19 17.7937V7.53968C19 7.3524 18.9571 7.1677 18.8746 7.00019C18.7922 6.83268 18.6725 6.68697 18.525 6.5746L10.2125 0.24127C10.0069 0.0846588 9.75694 0 9.5 0C9.24306 0 8.99305 0.0846588 8.7875 0.24127L0.475 6.5746C0.327517 6.68697 0.207813 6.83268 0.125368 7.00019C0.0429222 7.1677 0 7.3524 0 7.53968V17.7937C0 18.1136 0.125111 18.4204 0.347811 18.6467C0.57051 18.8729 0.872555 19 1.1875 19H5.9375C6.25244 19 6.55449 18.8729 6.77719 18.6467C6.99989 18.4204 7.125 18.1136 7.125 17.7937V14.1746C7.125 13.8547 7.25011 13.5478 7.47281 13.3216C7.69551 13.0954 7.99756 12.9683 8.3125 12.9683H10.6875C11.0024 12.9683 11.3045 13.0954 11.5272 13.3216C11.7499 13.5478 11.875 13.8547 11.875 14.1746V17.7937C11.875 18.1136 12.0001 18.4204 12.2228 18.6467C12.4455 18.8729 12.7476 19 13.0625 19H17.8125C18.1274 19 18.4295 18.8729 18.6522 18.6467C18.8749 18.4204 19 18.1136 19 17.7937Z" fill="#FF90BC"/>
</svg>
