<svg width="16" height="16" viewBox="0 0 16 16" fill="none" xmlns="http://www.w3.org/2000/svg">
<path d="M9.76466 2.72069C9.78255 2.79451 9.8176 2.86307 9.86698 2.92079C9.91636 2.97851 9.97866 3.02376 10.0488 3.05286C10.119 3.08197 10.195 3.0941 10.2707 3.08828C10.3465 3.08246 10.4198 3.05884 10.4847 3.01936C12.1107 2.02936 13.9713 3.88936 12.9813 5.51536C12.9418 5.5802 12.9182 5.65344 12.9123 5.72914C12.9065 5.80483 12.9186 5.88084 12.9476 5.95099C12.9766 6.02114 13.0218 6.08345 13.0794 6.13286C13.1371 6.18227 13.2056 6.21739 13.2793 6.23536C15.1293 6.68402 15.1293 9.31536 13.2793 9.76469C13.2055 9.78258 13.1369 9.81763 13.0792 9.86701C13.0215 9.91639 12.9763 9.97869 12.9472 10.0488C12.9181 10.119 12.9059 10.195 12.9117 10.2708C12.9176 10.3465 12.9412 10.4198 12.9807 10.4847C13.9707 12.1107 12.1107 13.9714 10.4847 12.9814C10.4198 12.9419 10.3466 12.9182 10.2709 12.9124C10.1952 12.9065 10.1192 12.9186 10.049 12.9476C9.97888 12.9767 9.91657 13.0218 9.86716 13.0795C9.81775 13.1371 9.78263 13.2056 9.76466 13.2794C9.31599 15.1294 6.68466 15.1294 6.23533 13.2794C6.21744 13.2055 6.18238 13.137 6.13301 13.0793C6.08363 13.0215 6.02133 12.9763 5.95117 12.9472C5.88101 12.9181 5.80497 12.9059 5.72924 12.9118C5.65351 12.9176 5.58021 12.9412 5.51533 12.9807C3.88933 13.9707 2.02866 12.1107 3.01866 10.4847C3.05815 10.4198 3.08178 10.3466 3.08765 10.2709C3.09351 10.1952 3.08143 10.1192 3.0524 10.0491C3.02336 9.97891 2.97819 9.9166 2.92055 9.86719C2.86291 9.81778 2.79442 9.78266 2.72066 9.76469C0.87066 9.31602 0.87066 6.68469 2.72066 6.23536C2.79448 6.21747 2.86304 6.18242 2.92076 6.13304C2.97848 6.08366 3.02373 6.02136 3.05283 5.9512C3.08194 5.88104 3.09407 5.805 3.08825 5.72927C3.08243 5.65354 3.05881 5.58025 3.01933 5.51536C2.02933 3.88936 3.88933 2.02869 5.51533 3.01869C5.5801 3.05848 5.65338 3.08235 5.72917 3.08837C5.80495 3.09438 5.88107 3.08236 5.95132 3.05329C6.02156 3.02422 6.08391 2.97892 6.13328 2.92111C6.18264 2.8633 6.21762 2.79462 6.23533 2.72069C6.68399 0.870691 9.31533 0.870691 9.76466 2.72069ZM7.99999 6.00002C7.46956 6.00002 6.96085 6.21074 6.58578 6.58581C6.21071 6.96088 5.99999 7.46959 5.99999 8.00002C5.99999 8.53046 6.21071 9.03917 6.58578 9.41424C6.96085 9.78931 7.46956 10 7.99999 10C8.53043 10 9.03913 9.78931 9.41421 9.41424C9.78928 9.03917 9.99999 8.53046 9.99999 8.00002C9.99999 7.46959 9.78928 6.96088 9.41421 6.58581C9.03913 6.21074 8.53043 6.00002 7.99999 6.00002Z" fill="#FF90BC"/>
</svg>
